# xmcd CD database file
#
# Track frame offsets:
#	150
#	18437
#	33325
#	50375
#	66262
#	83275
#	98470
#	116032
#
# Disc length: 1767 seconds
#
# Revision: 0
# Processed by: cddbd v1.5.1PL0 Copyright (c) Steve Scherf et al.
# Submitted via: CDex 1.50
#
DISCID=5506e508
DTITLE=Sonora Tropicana - Sonora Tropicana 93
DYEAR=1993
DGENRE=Salsa
TTITLE0=Hacer el amor con otro
TTITLE1=Quiero amanecer con alguien
TTITLE2=Todo mi corazon
TTITLE3=Quien como tu
TTITLE4=Ni un roce
TTITLE5=Con tu amor
TTITLE6=Duele
TTITLE7=Hazme sentir
EXTD=YEAR: 1993
EXTT0=
EXTT1=
EXTT2=
EXTT3=
EXTT4=
EXTT5=
EXTT6=
EXTT7=
PLAYORDER=
